<svg xmlns="http://www.w3.org/2000/svg" xmlns:xlink="http://www.w3.org/1999/xlink" width="500" zoomAndPan="magnify" viewBox="0 0 375 374.999991" height="500" preserveAspectRatio="xMidYMid meet" version="1.0"><defs><g/></defs><rect x="-37.5" width="450" fill="#ffffff" y="-37.499999" height="449.999989" fill-opacity="1"/><rect x="-37.5" width="450" fill="#ffffff" y="-37.499999" height="449.999989" fill-opacity="1"/><g fill="#004aad" fill-opacity="1"><g transform="translate(12.411753, 209.034976)"><g><path d="M 19.265625 -47.78125 L 0.359375 -47.78125 L 0.359375 -61.59375 L 55.515625 -61.59375 L 55.515625 -47.78125 L 36.6875 -47.78125 L 36.6875 0 L 19.265625 0 Z M 19.265625 -47.78125 "/></g></g></g><g fill="#004aad" fill-opacity="1"><g transform="translate(59.308743, 209.034976)"><g><path d="M 25.6875 -48.484375 C 33.601562 -48.484375 39.644531 -46.675781 43.8125 -43.0625 C 47.976562 -39.457031 50.0625 -33.929688 50.0625 -26.484375 L 50.0625 0 L 34.484375 0 L 34.484375 -6.15625 C 32.078125 -1.519531 27.382812 0.796875 20.40625 0.796875 C 16.71875 0.796875 13.523438 0.148438 10.828125 -1.140625 C 8.128906 -2.429688 6.085938 -4.175781 4.703125 -6.375 C 3.328125 -8.570312 2.640625 -11.082031 2.640625 -13.90625 C 2.640625 -18.414062 4.367188 -21.914062 7.828125 -24.40625 C 11.285156 -26.90625 16.625 -28.15625 23.84375 -28.15625 L 33.34375 -28.15625 C 33.050781 -33.195312 29.679688 -35.71875 23.234375 -35.71875 C 20.941406 -35.71875 18.617188 -35.347656 16.265625 -34.609375 C 13.921875 -33.878906 11.929688 -32.875 10.296875 -31.59375 L 4.65625 -42.9375 C 7.300781 -44.695312 10.515625 -46.0625 14.296875 -47.03125 C 18.078125 -48 21.875 -48.484375 25.6875 -48.484375 Z M 25.078125 -9.765625 C 27.015625 -9.765625 28.710938 -10.234375 30.171875 -11.171875 C 31.640625 -12.109375 32.695312 -13.488281 33.34375 -15.3125 L 33.34375 -19.4375 L 26.125 -19.4375 C 21.257812 -19.4375 18.828125 -17.828125 18.828125 -14.609375 C 18.828125 -13.140625 19.382812 -11.960938 20.5 -11.078125 C 21.613281 -10.203125 23.140625 -9.765625 25.078125 -9.765625 Z M 25.078125 -9.765625 "/></g></g></g><g fill="#004aad" fill-opacity="1"><g transform="translate(105.589845, 209.034976)"><g><path d="M 5.359375 -65.28125 L 22.078125 -65.28125 L 22.078125 0 L 5.359375 0 Z M 5.359375 -65.28125 "/></g></g></g><g fill="#004aad" fill-opacity="1"><g transform="translate(124.15507, 209.034976)"><g><path d="M 54.109375 -23.75 C 54.109375 -23.632812 54.019531 -22.257812 53.84375 -19.625 L 19.1875 -19.625 C 19.882812 -17.15625 21.242188 -15.257812 23.265625 -13.9375 C 25.296875 -12.625 27.832031 -11.96875 30.875 -11.96875 C 33.164062 -11.96875 35.144531 -12.289062 36.8125 -12.9375 C 38.488281 -13.582031 40.175781 -14.632812 41.875 -16.09375 L 50.671875 -6.953125 C 46.046875 -1.785156 39.273438 0.796875 30.359375 0.796875 C 24.785156 0.796875 19.882812 -0.257812 15.65625 -2.375 C 11.4375 -4.488281 8.164062 -7.421875 5.84375 -11.171875 C 3.53125 -14.929688 2.375 -19.1875 2.375 -23.9375 C 2.375 -28.625 3.503906 -32.828125 5.765625 -36.546875 C 8.023438 -40.273438 11.144531 -43.195312 15.125 -45.3125 C 19.113281 -47.425781 23.601562 -48.484375 28.59375 -48.484375 C 33.34375 -48.484375 37.648438 -47.5 41.515625 -45.53125 C 45.390625 -43.5625 48.457031 -40.710938 50.71875 -36.984375 C 52.976562 -33.265625 54.109375 -28.851562 54.109375 -23.75 Z M 28.6875 -36.59375 C 26.101562 -36.59375 23.945312 -35.859375 22.21875 -34.390625 C 20.488281 -32.929688 19.390625 -30.941406 18.921875 -28.421875 L 38.453125 -28.421875 C 37.984375 -30.941406 36.878906 -32.929688 35.140625 -34.390625 C 33.410156 -35.859375 31.257812 -36.59375 28.6875 -36.59375 Z M 28.6875 -36.59375 "/></g></g></g><g fill="#004aad" fill-opacity="1"><g transform="translate(171.667982, 209.034976)"><g><path d="M 36.421875 -48.484375 C 42.347656 -48.484375 47.113281 -46.722656 50.71875 -43.203125 C 54.332031 -39.679688 56.140625 -34.375 56.140625 -27.28125 L 56.140625 0 L 39.421875 0 L 39.421875 -24.546875 C 39.421875 -31.054688 36.8125 -34.3125 31.59375 -34.3125 C 28.71875 -34.3125 26.410156 -33.375 24.671875 -31.5 C 22.941406 -29.625 22.078125 -26.804688 22.078125 -23.046875 L 22.078125 0 L 5.359375 0 L 5.359375 -47.6875 L 21.296875 -47.6875 L 21.296875 -42.5 C 23.171875 -44.4375 25.394531 -45.914062 27.96875 -46.9375 C 30.550781 -47.96875 33.367188 -48.484375 36.421875 -48.484375 Z M 36.421875 -48.484375 "/></g></g></g><g fill="#004aad" fill-opacity="1"><g transform="translate(223.932197, 209.034976)"><g><path d="M 38.265625 -1.9375 C 36.859375 -1.050781 35.144531 -0.375 33.125 0.09375 C 31.101562 0.5625 28.945312 0.796875 26.65625 0.796875 C 20.4375 0.796875 15.65625 -0.726562 12.3125 -3.78125 C 8.96875 -6.832031 7.296875 -11.378906 7.296875 -17.421875 L 7.296875 -33.4375 L 0.359375 -33.4375 L 0.359375 -45.921875 L 7.296875 -45.921875 L 7.296875 -58.328125 L 24.015625 -58.328125 L 24.015625 -45.921875 L 34.9375 -45.921875 L 34.9375 -33.4375 L 24.015625 -33.4375 L 24.015625 -17.59375 C 24.015625 -15.894531 24.46875 -14.5625 25.375 -13.59375 C 26.289062 -12.625 27.507812 -12.140625 29.03125 -12.140625 C 30.96875 -12.140625 32.671875 -12.640625 34.140625 -13.640625 Z M 38.265625 -1.9375 "/></g></g></g><g fill="#004aad" fill-opacity="1"><g transform="translate(254.287666, 209.034976)"><g><path d="M 29.296875 0.796875 C 24.191406 0.796875 19.585938 -0.257812 15.484375 -2.375 C 11.378906 -4.488281 8.164062 -7.421875 5.84375 -11.171875 C 3.53125 -14.929688 2.375 -19.1875 2.375 -23.9375 C 2.375 -28.625 3.53125 -32.84375 5.84375 -36.59375 C 8.164062 -40.351562 11.363281 -43.273438 15.4375 -45.359375 C 19.519531 -47.441406 24.140625 -48.484375 29.296875 -48.484375 C 34.460938 -48.484375 39.097656 -47.441406 43.203125 -45.359375 C 47.304688 -43.273438 50.5 -40.367188 52.78125 -36.640625 C 55.070312 -32.921875 56.21875 -28.6875 56.21875 -23.9375 C 56.21875 -19.1875 55.070312 -14.929688 52.78125 -11.171875 C 50.5 -7.421875 47.304688 -4.488281 43.203125 -2.375 C 39.097656 -0.257812 34.460938 0.796875 29.296875 0.796875 Z M 29.296875 -12.5 C 32.234375 -12.5 34.640625 -13.507812 36.515625 -15.53125 C 38.390625 -17.550781 39.328125 -20.351562 39.328125 -23.9375 C 39.328125 -27.445312 38.390625 -30.195312 36.515625 -32.1875 C 34.640625 -34.1875 32.234375 -35.1875 29.296875 -35.1875 C 26.367188 -35.1875 23.960938 -34.1875 22.078125 -32.1875 C 20.203125 -30.195312 19.265625 -27.445312 19.265625 -23.9375 C 19.265625 -20.351562 20.203125 -17.550781 22.078125 -15.53125 C 23.960938 -13.507812 26.367188 -12.5 29.296875 -12.5 Z M 29.296875 -12.5 "/></g></g></g><g fill="#004aad" fill-opacity="1"><g transform="translate(303.912258, 209.034976)"><g><path d="M 29.296875 0.796875 C 24.191406 0.796875 19.585938 -0.257812 15.484375 -2.375 C 11.378906 -4.488281 8.164062 -7.421875 5.84375 -11.171875 C 3.53125 -14.929688 2.375 -19.1875 2.375 -23.9375 C 2.375 -28.625 3.53125 -32.84375 5.84375 -36.59375 C 8.164062 -40.351562 11.363281 -43.273438 15.4375 -45.359375 C 19.519531 -47.441406 24.140625 -48.484375 29.296875 -48.484375 C 34.460938 -48.484375 39.097656 -47.441406 43.203125 -45.359375 C 47.304688 -43.273438 50.5 -40.367188 52.78125 -36.640625 C 55.070312 -32.921875 56.21875 -28.6875 56.21875 -23.9375 C 56.21875 -19.1875 55.070312 -14.929688 52.78125 -11.171875 C 50.5 -7.421875 47.304688 -4.488281 43.203125 -2.375 C 39.097656 -0.257812 34.460938 0.796875 29.296875 0.796875 Z M 29.296875 -12.5 C 32.234375 -12.5 34.640625 -13.507812 36.515625 -15.53125 C 38.390625 -17.550781 39.328125 -20.351562 39.328125 -23.9375 C 39.328125 -27.445312 38.390625 -30.195312 36.515625 -32.1875 C 34.640625 -34.1875 32.234375 -35.1875 29.296875 -35.1875 C 26.367188 -35.1875 23.960938 -34.1875 22.078125 -32.1875 C 20.203125 -30.195312 19.265625 -27.445312 19.265625 -23.9375 C 19.265625 -20.351562 20.203125 -17.550781 22.078125 -15.53125 C 23.960938 -13.507812 26.367188 -12.5 29.296875 -12.5 Z M 29.296875 -12.5 "/></g></g></g></svg>